# Rhino

mtllib stool.mtl
g object_1
usemtl Sandstone
v -12.171719 -0.004609 12.195357
v -11.916804 -0.004609 12.303419
v -11.916804 2.925553 12.303419
v -12.171719 2.925553 12.195357
v -10.370481 2.925553 8.655748000000001
v -10.625396 2.925553 8.547684
v -10.370481 -0.004609 8.655748000000001
v -10.625396 -0.004609 8.547684
v -11.916804 -0.004609 12.303419
v -12.171719 -0.004609 12.195357
v -10.370481 -0.004609 8.655748000000001
v -10.370481 2.925553 8.655748000000001
v -10.625396 -0.004609 8.547684
v -10.625396 2.925553 8.547684
vt 0.375 0
vt 0.625 0
vt 0.625 0.25
vt 0.375 0.25
vt 0.625 0.5
vt 0.375 0.5
vt 0.625 0.75
vt 0.375 0.75
vt 0.625 1
vt 0.375 1
vt 0.875 0
vt 0.875 0.25
vt 0.125 0
vt 0.125 0.25
vn -0.927006721496582 0 0.3750447928905487
vn 0.3750446736812592 0 0.927006721496582
vn 0.3062230050563812 0.5773491859436035 0.7568985819816589
vn -0.7568970918655396 0.5773513317108154 0.3062224984169006
vn 0.2759834825992584 0.7071067690849304 -0.6510246396064758
vn 0.2759834825992584 0.7071067690849304 -0.6510246396064758
vn 0.2759834825992584 -0.7071067690849304 -0.6510246396064758
vn 0.2759834825992584 -0.7071067690849304 -0.6510246396064758
vn 0 -1 0
vn 0 -1 0
vn 0.920688271522522 0 0.3902987539768219
vn 0.920688271522522 0 0.3902987539768219
vn -0.9206883311271667 0 -0.3902985751628876
vn -0.9206883311271667 0 -0.3902985751628876
f 1/1/1 2/2/2 3/3/3 4/4/4
f 4/4/4 3/3/3 5/5/5 6/6/6
f 6/6/6 5/5/5 7/7/7 8/8/8
f 8/8/8 7/7/7 9/9/9 10/10/10
f 2/2/2 11/11/11 12/12/12 3/3/3
f 13/13/13 1/1/1 4/4/4 14/14/14
g object_2
usemtl Sandstone
v -12.337869 2.899867 12.124921
v -7.64418 2.899867 14.114674
v -7.64418 3.205333 14.114674
v -12.337869 3.205333 12.124921
v -6.097858 3.205333 10.466999
v -10.791546 3.205333 8.477249
v -6.097858 2.899867 10.466999
v -10.791546 2.899867 8.477249
v -7.64418 2.899867 14.114674
v -12.337869 2.899867 12.124921
v -6.097858 2.899867 10.466999
v -6.097858 3.205333 10.466999
v -10.791546 2.899867 8.477249
v -10.791546 3.205333 8.477249
vt 0.375 0
vt 0.625 0
vt 0.625 0.25
vt 0.375 0.25
vt 0.625 0.5
vt 0.375 0.5
vt 0.625 0.75
vt 0.375 0.75
vt 0.625 1
vt 0.375 1
vt 0.875 0
vt 0.875 0.25
vt 0.125 0
vt 0.125 0.25
vn -0.9270078539848328 0 0.3750419318675995
vn 0.3750422298908234 0 0.9270077347755432
vn 0.3062206506729126 0.5773504376411438 0.7568985223770142
vn -0.756898820400238 0.5773501992225647 0.3062204718589783
vn 0.2759827375411987 0.7071067690849304 -0.6510249972343445
vn 0.2759827375411987 0.7071067690849304 -0.6510249972343445
vn 0.2759827375411987 -0.7071067690849304 -0.6510249972343445
vn 0.2759827375411987 -0.7071067690849304 -0.6510249972343445
vn 0 -1 0
vn 0 -1 0
vn 0.9206885099411011 0 0.3902981877326965
vn 0.9206885099411011 0 0.3902981877326965
vn -0.9206883311271667 0 -0.3902986645698547
vn -0.9206883311271667 0 -0.3902986645698547
f 15/15/15 16/16/16 17/17/17 18/18/18
f 18/18/18 17/17/17 19/19/19 20/20/20
f 20/20/20 19/19/19 21/21/21 22/22/22
f 22/22/22 21/21/21 23/23/23 24/24/24
f 16/16/16 25/25/25 26/26/26 17/17/17
f 27/27/27 15/15/15 18/18/18 28/28/28
g object_3
usemtl Sandstone
v -7.980539 -0.004609 13.972084
v -7.725623 -0.004609 14.080146
v -7.725623 2.925553 14.080146
v -7.980539 2.925553 13.972084
v -6.1793 2.925553 10.432474
v -6.434216 2.925553 10.324411
v -6.1793 -0.004609 10.432474
v -6.434216 -0.004609 10.324411
v -7.725623 -0.004609 14.080146
v -7.980539 -0.004609 13.972084
v -6.1793 -0.004609 10.432474
v -6.1793 2.925553 10.432474
v -6.434216 -0.004609 10.324411
v -6.434216 2.925553 10.324411
vt 0.375 0
vt 0.625 0
vt 0.625 0.25
vt 0.375 0.25
vt 0.625 0.5
vt 0.375 0.5
vt 0.625 0.75
vt 0.375 0.75
vt 0.625 1
vt 0.375 1
vt 0.875 0
vt 0.875 0.25
vt 0.125 0
vt 0.125 0.25
vn -0.9270064234733582 0 0.3750454485416412
vn 0.3750453889369965 0 0.9270064234733582
vn 0.3062236309051514 0.5773488879203796 0.7568984627723694
vn -0.7568967342376709 0.5773515701293945 0.3062229752540588
vn 0.2759804129600525 0.7071067690849304 -0.6510259509086609
vn 0.2759804129600525 0.7071067690849304 -0.6510259509086609
vn 0.2759804129600525 -0.7071067690849304 -0.6510259509086609
vn 0.2759804129600525 -0.7071067690849304 -0.6510259509086609
vn 0 -1 0
vn 0 -1 0
vn 0.9206883311271667 0 0.3902986645698547
vn 0.9206883311271667 0 0.3902986645698547
vn -0.9206883311271667 0 -0.3902985751628876
vn -0.9206883311271667 0 -0.3902985751628876
f 29/29/29 30/30/30 31/31/31 32/32/32
f 32/32/32 31/31/31 33/33/33 34/34/34
f 34/34/34 33/33/33 35/35/35 36/36/36
f 36/36/36 35/35/35 37/37/37 38/38/38
f 30/30/30 39/39/39 40/40/40 31/31/31
f 41/41/41 29/29/29 32/32/32 42/42/42
